Coordinates
version=1
nRows=13
nColumns=63
inDegrees=yes

Units are S.I. units (second, meters, Newtons, ...)
If the header above contains a line with 'inDegrees', this indicates whether rotational values are in degrees (yes) or radians (no).

endheader
time	pelvis_tilt	pelvis_list	pelvis_rotation	pelvis_tx	pelvis_ty	pelvis_tz	hip_flexion_r	hip_adduction_r	hip_rotation_r	knee_angle_r	knee_angle_r_beta	ankle_angle_r	subtalar_angle_r	mtp_angle_r	hip_flexion_l	hip_adduction_l	hip_rotation_l	knee_angle_l	knee_angle_l_beta	ankle_angle_l	subtalar_angle_l	mtp_angle_l	L5_S1_Flex_Ext	L5_S1_Lat_Bending	L5_S1_axial_rotation	L4_L5_Flex_Ext	L4_L5_Lat_Bending	L4_L5_axial_rotation	L3_L4_Flex_Ext	L3_L4_Lat_Bending	L3_L4_axial_rotation	L2_L3_Flex_Ext	L2_L3_Lat_Bending	L2_L3_axial_rotation	L1_L2_Flex_Ext	L1_L2_Lat_Bending	L1_L2_axial_rotation	L1_T12_Flex_Ext	L1_T12_Lat_Bending	L1_T12_axial_rotation	Abs_r3	Abs_r2	Abs_r1	Abs_t1	Abs_t2	neck_flexion	neck_bending	neck_rotation	arm_flex_r	arm_add_r	arm_rot_r	elbow_flex_r	pro_sup_r	wrist_flex_r	wrist_dev_r	arm_flex_l	arm_add_l	arm_rot_l	elbow_flex_l	pro_sup_l	wrist_flex_l	wrist_dev_l
3.812500	-5.223253	-9.672978	93.695147	0.232486	0.909434	0.475405	1.629343	-2.452814	6.501325	12.480844	0.217832	27.997682	-12.853353	0.000000	1.977078	4.326785	4.986366	11.794498	0.205853	24.811693	-8.437406	0.000000	0.281222	-1.044886	1.016946	0.522257	-1.389698	1.080505	0.462019	-2.540535	1.080505	0.321408	-2.540535	0.889828	0.261142	-2.130731	0.826269	0.160690	-1.618528	0.762710	2.008738	-11.819955	5.655949	0.000000	0.000000	28.133488	0.668139	-29.707309	-185.310175	-69.808553	-287.601376	85.118775	88.236834	-17.838971	2.935807	9.823903	-13.955409	170.185338	3.329311	8.441805	-0.583432	-3.870702
3.833333	-5.239082	-9.769453	93.767108	0.231969	0.909296	0.474701	1.468930	-2.544612	6.193501	12.111716	0.211389	27.930152	-12.394684	0.000000	1.821194	4.357528	5.127906	11.317924	0.197535	24.719859	-8.316398	0.000000	0.300910	-1.050381	1.006238	0.558819	-1.397007	1.069128	0.494365	-2.553897	1.069128	0.343910	-2.553897	0.880458	0.279425	-2.141937	0.817568	0.171940	-1.627040	0.754678	2.149368	-11.882121	5.596393	0.000000	0.000000	28.217857	1.029251	-28.963690	-186.885852	-70.779516	-293.716456	87.374872	87.836836	-16.305768	2.274982	9.692010	-13.920678	171.045630	3.129985	8.494717	-0.711092	-3.884937
3.854167	-5.255229	-9.870163	93.783450	0.231627	0.909160	0.474127	1.323485	-2.626930	5.992624	11.722657	0.204599	27.875005	-11.961917	0.000000	1.634697	4.373964	5.207371	10.746723	0.187566	24.608866	-8.137778	0.000000	0.322122	-1.052470	0.991863	0.598212	-1.399785	1.053855	0.529213	-2.558975	1.053855	0.368153	-2.558975	0.867880	0.299122	-2.146196	0.805889	0.184060	-1.630276	0.743897	2.300882	-11.905749	5.516446	0.000000	0.000000	28.303646	1.282270	-28.276996	-188.631315	-71.299999	-299.480187	88.962782	87.434417	-14.839180	1.987734	9.512605	-13.892755	171.786811	2.930931	8.497607	-0.899520	-3.893084
3.875000	-5.267121	-9.949610	93.725345	0.231491	0.909054	0.473713	1.180524	-2.691546	5.937447	11.330067	0.197747	27.845310	-11.579191	0.000000	1.402503	4.371262	5.206773	10.104977	0.176365	24.474978	-7.925886	0.000000	0.338766	-1.051002	0.981214	0.629123	-1.397833	1.042540	0.556559	-2.555407	1.042540	0.387176	-2.555407	0.858563	0.314578	-2.143204	0.797237	0.193571	-1.628002	0.735911	2.419774	-11.889148	5.457221	0.000000	0.000000	28.401853	1.409091	-27.769189	-190.317868	-71.392153	-304.447887	89.866305	87.037308	-13.596092	2.048831	9.335742	-13.875861	172.306101	2.778264	8.549628	-1.138526	-3.918279
3.895833	-5.270367	-9.999244	93.601491	0.231536	0.908982	0.473440	1.032345	-2.728840	6.074071	10.935362	0.190858	27.807236	-11.354732	0.000000	1.125928	4.352215	5.183597	9.420954	0.164427	24.305179	-7.751991	0.000000	0.349674	-1.045051	0.967498	0.649379	-1.389918	1.027966	0.574479	-2.540937	1.027966	0.399642	-2.540937	0.846560	0.324707	-2.131068	0.786092	0.199804	-1.618784	0.725623	2.497685	-11.821827	5.380932	0.000000	0.000000	28.537846	1.469003	-27.399078	-192.006880	-71.045405	-308.588178	90.186787	86.704510	-12.330934	2.734004	9.128034	-13.873141	172.724297	2.611394	8.463924	-1.352663	-3.988905
3.916667	-5.244264	-9.993344	93.402378	0.231701	0.908960	0.473311	0.872868	-2.723475	6.380366	10.575484	0.184577	27.778099	-11.255186	0.000000	0.790261	4.298440	5.092725	8.723252	0.152249	24.148480	-7.581510	0.000000	0.351480	-1.030653	0.958603	0.652733	-1.370768	1.018515	0.577446	-2.505929	1.018515	0.401706	-2.505929	0.838777	0.326384	-2.101707	0.778865	0.200836	-1.596481	0.718952	2.510586	-11.658950	5.331461	0.000000	0.000000	28.651469	1.405139	-27.243758	-193.493035	-70.294498	-311.526099	89.982690	86.444721	-11.192737	3.792534	8.928388	-13.868949	172.791358	2.489271	8.277772	-1.553366	-4.118559
3.937500	-5.206404	-9.947599	93.141109	0.231972	0.909004	0.473307	0.716309	-2.696243	6.834333	10.252381	0.178938	27.728682	-11.299563	0.000000	0.430161	4.232944	4.961085	8.054700	0.140581	23.979073	-7.453318	0.000000	0.347968	-1.011100	0.959436	0.646211	-1.344763	1.019400	0.571676	-2.458389	1.019400	0.397692	-2.458389	0.839506	0.323123	-2.061835	0.779541	0.198829	-1.566194	0.719577	2.485499	-11.437767	5.336093	0.000000	0.000000	28.682464	1.311850	-27.359834	-194.652261	-69.264287	-313.072832	89.454694	86.275403	-10.399547	5.071811	8.764319	-13.880383	172.398610	2.433729	8.005309	-1.728584	-4.324242
3.958333	-5.140247	-9.836929	92.825865	0.232286	0.909144	0.473383	0.535933	-2.635495	7.373713	9.972399	0.174051	27.669194	-11.431838	0.000000	0.023866	4.146751	4.839277	7.431894	0.129711	23.799379	-7.431509	0.000000	0.337708	-0.982967	0.970055	0.627158	-1.307347	1.030683	0.554821	-2.389987	1.030683	0.385967	-2.389987	0.848798	0.313596	-2.004467	0.788170	0.192967	-1.522617	0.727541	2.412217	-11.119524	5.395155	0.000000	0.000000	28.577339	1.141234	-27.721603	-195.476968	-67.990729	-313.127970	88.687509	86.201143	-10.352075	6.125148	8.637048	-13.888124	171.552717	2.427648	7.672657	-1.869055	-4.640245
3.979167	-5.051491	-9.676171	92.468933	0.232610	0.909381	0.473475	0.337764	-2.550280	7.949553	9.728216	0.169789	27.590523	-11.629130	0.000000	-0.404703	4.045717	4.688012	6.880956	0.120095	23.613264	-7.472679	0.000000	0.323769	-0.947865	1.000103	0.601271	-1.260660	1.062610	0.531920	-2.304638	1.062610	0.370035	-2.304638	0.875090	0.300652	-1.932886	0.812584	0.185001	-1.468242	0.750077	2.312648	-10.722435	5.562274	0.000000	0.000000	28.323622	0.920873	-28.353669	-195.747050	-66.556124	-311.518636	87.813578	86.225585	-10.934736	6.766336	8.583077	-13.894028	170.074513	2.506333	7.301339	-1.939650	-5.048197
4.000000	-4.965890	-9.464367	92.091801	0.232933	0.909737	0.473488	0.112350	-2.467397	8.536327	9.531670	0.166359	27.500711	-11.860927	0.000000	-0.864373	3.956222	4.526379	6.395058	0.111615	23.391798	-7.580217	0.000000	0.306475	-0.910415	1.046200	0.569155	-1.210852	1.111587	0.503508	-2.213582	1.111587	0.350270	-2.213582	0.915425	0.284593	-1.856518	0.850037	0.175120	-1.410232	0.784650	2.189121	-10.298793	5.818649	0.000000	0.000000	27.917731	0.707942	-29.254300	-195.499526	-65.054570	-308.413394	86.929082	86.347082	-12.128898	6.915323	8.589167	-13.900573	168.224834	2.593835	6.938310	-2.007815	-5.478237
4.020833	-4.868067	-9.204619	91.697276	0.233197	0.910179	0.473329	-0.148178	-2.375431	9.096478	9.378481	0.163685	27.399911	-12.086623	0.000000	-1.352337	3.867396	4.352922	5.986809	0.104490	23.155187	-7.759919	0.000000	0.286384	-0.868742	1.112119	0.531844	-1.155427	1.181626	0.470501	-2.112259	1.181626	0.327309	-2.112259	0.973104	0.265936	-1.771539	0.903597	0.163640	-1.345681	0.834089	2.045614	-9.827383	6.185273	0.000000	0.000000	27.370831	0.465501	-30.400975	-194.590217	-63.521740	-303.801772	86.061828	86.550483	-13.870186	6.487371	8.645211	-13.901858	165.909074	2.690338	6.601436	-2.020629	-6.052757
4.041667	-4.768971	-8.909029	91.297803	0.233398	0.910723	0.472998	-0.436391	-2.293337	9.536123	9.266053	0.161723	27.305212	-12.171229	0.000000	-1.855010	3.792223	4.213285	5.655264	0.098703	22.883938	-8.034104	0.000000	0.265921	-0.825845	1.182330	0.493842	-1.098374	1.256226	0.436881	-2.007959	1.256226	0.303921	-2.007959	1.034539	0.246934	-1.684063	0.960643	0.151947	-1.279234	0.886748	1.899447	-9.342122	6.575766	0.000000	0.000000	26.641208	0.266263	-31.751159	-193.860197	-62.049189	-298.977890	85.285723	86.850369	-15.564212	5.753205	8.706942	-13.912825	163.449735	2.743242	6.089289	-1.999125	-6.686407
4.062500	-4.683861	-8.581254	90.902158	0.233527	0.911334	0.472473	-0.753070	-2.229588	9.934891	9.201169	0.160591	27.226638	-12.206908	0.000000	-2.368387	3.741649	4.044875	5.401165	0.094268	22.617345	-8.299321	0.000000	0.242784	-0.784736	1.257664	0.450874	-1.043699	1.336268	0.398870	-1.908007	1.336268	0.277478	-1.908007	1.100456	0.225449	-1.600233	1.021852	0.138727	-1.215556	0.943248	1.734182	-8.877089	6.994750	0.000000	0.000000	25.796614	0.011904	-33.289848	-193.106525	-60.657807	-293.993912	84.601300	87.220192	-16.986716	4.960756	8.780041	-13.944979	160.721728	2.762744	5.561790	-1.920396	-7.450824
